#!OML:ASF F:\VICON\USERDATA\INSTALL\rory3\rory3.ASF
:FULLY-SPECIFIED
:DEGREES
938
root -3.05448 17.6157 1.08626 -0.907893 -18.1058 1.91638
lowerback 6.95153 1.02902 0.361055
upperback 0.218951 1.44147 1.18839
thorax -3.69362 0.717984 0.880364
lowerneck -23.2429 3.28991 -7.63635
upperneck 26.7758 8.43637 -2.54412
head 12.6369 2.53872 1.74088
rclavicle 2.16178e-014 1.11319e-014
rhumerus 34.882 -43.5298 -40.8971
rradius 98.2425
rwrist 2.71044
rhand -46.0668 1.01831
rfingers 7.12502
rthumb -18.8099 -28.0922
lclavicle 2.16178e-014 1.11319e-014
lhumerus 5.59149 48.1737 26.5119
lradius 86.5081
lwrist 28.8735
lhand -22.8009 20.6407
lfingers 7.12502
lthumb 3.63536 50.5894
rfemur -5.20912 0.196421 20.0266
rtibia 32.6049
rfoot -23.2909 -3.24198
rtoes 3.30104
lfemur -21.4507 1.68718 -20.8757
ltibia 25.6924
lfoot -8.66331 1.21344
ltoes -22.2403
939
root -3.00552 17.6375 1.02869 -0.84343 -17.8472 1.93915
lowerback 6.85936 0.963836 0.287287
upperback 0.264194 1.34676 1.17362
thorax -3.59508 0.672116 0.917943
lowerneck -22.9699 3.32131 -7.69599
upperneck 26.9726 8.50004 -2.57585
head 12.6606 2.54966 1.74558
rclavicle -5.66536e-015 7.15625e-015
rhumerus 34.4776 -43.174 -41.1258
rradius 97.7931
rwrist 2.5515
rhand -45.8288 1.246
rfingers 7.12502
rthumb -18.581 -27.8866
lclavicle -5.66536e-015 7.15625e-015
lhumerus 6.1891 48.2232 27.2635
lradius 86.4226
lwrist 29.0653
lhand -22.7087 20.754
lfingers 7.12502
lthumb 3.7244 50.7012
rfemur -5.47643 0.209042 19.9151
rtibia 32.5189
rfoot -23.1937 -3.52439
rtoes 3.7459
lfemur -21.4798 1.2119 -20.4108
ltibia 26.7699
lfoot -8.94011 1.89
ltoes -21.1053
940
root -2.95476 17.6555 0.963939 -0.80039 -17.6011 1.82505
lowerback 6.99544 0.896623 0.297555
upperback 0.243667 1.26096 1.20826
thorax -3.69197 0.629571 0.95424
lowerneck -22.3843 3.39152 -7.63403
upperneck 26.9122 8.58559 -2.83523
head 12.5372 2.57324 1.63486
rclavicle -1.76918e-014 -6.36111e-015
rhumerus 33.7762 -42.6831 -41.0725
rradius 97.3745
rwrist 2.43789
rhand -45.7781 0.972456
rfingers 7.12502
rthumb -18.5322 -28.1648
lclavicle -1.76918e-014 -6.36111e-015
lhumerus 6.62038 48.0876 27.8652
lradius 86.2185
lwrist 29.1897
lhand -22.7793 20.631
lfingers 7.12502
lthumb 3.65626 50.5794
rfemur -5.72374 0.251061 19.9656
rtibia 32.4329
rfoot -22.9652 -3.92006
rtoes 3.20675
lfemur -21.4356 0.89316 -19.7966
ltibia 27.8557
lfoot -9.25228 2.32059
ltoes -20.8073
941
root -2.90317 17.6658 0.898017 -0.782893 -17.3615 1.81212
lowerback 7.12905 0.881294 0.213771
upperback 0.312214 1.23357 1.19629
thorax -3.69698 0.617077 0.990251
lowerneck -22.2127 3.3982 -7.54529
upperneck 27.0443 8.63973 -3.10176
head 12.5779 2.56328 1.52724
rclavicle 2.47984e-014 -7.95139e-016
rhumerus 32.9878 -42.3558 -40.9064
rradius 96.9861
rwrist 2.4206
rhand -45.6933 0.650947
rfingers 7.12502
rthumb -18.4506 -28.494
lclavicle 2.47984e-014 -7.95139e-016
lhumerus 7.44766 48.0186 28.8972
lradius 86.0045
lwrist 29.3443
lhand -22.8755 20.5088
lfingers 7.12502
lthumb 3.56336 50.4587
rfemur -5.99857 0.299358 19.9022
rtibia 32.3582
rfoot -22.7631 -4.3205
rtoes 2.51588
lfemur -21.3833 0.799406 -19.3098
ltibia 28.9532
lfoot -9.51407 2.46841
ltoes -20.5071
942
root -2.85059 17.6767 0.840326 -0.690506 -17.1984 1.82969
lowerback 7.0301 0.914183 0.163617
upperback 0.413215 1.27013 1.17048
thorax -3.53802 0.635559 0.990311
lowerneck -22.0555 3.3589 -7.52732
upperneck 27.1928 8.64817 -3.33758
head 12.625 2.52893 1.4354
rclavicle -2.13694e-015 3.18055e-015
rhumerus 32.2299 -42.1031 -40.7358
rradius 96.5232
rwrist 2.42378
rhand -45.3956 0.681805
rfingers 7.12502
rthumb -18.1643 -28.4901
lclavicle -2.13694e-015 3.18055e-015
lhumerus 8.30852 47.9163 30.1165
lradius 85.88
lwrist 29.4318
lhand -22.831 20.454
lfingers 7.12502
lthumb 3.60629 50.4033
rfemur -6.31894 0.332917 19.7772
rtibia 32.2668
rfoot -22.6887 -4.46295
rtoes 3.24441
lfemur -21.3724 0.869917 -18.8779
ltibia 30.0764
lfoot -9.61356 2.60598
ltoes -20.2084
943
root -2.79671 17.6929 0.786769 -0.667305 -17.1262 1.88078
lowerback 6.83698 0.955337 0.165554
upperback 0.566286 1.31807 1.07301
thorax -3.26993 0.658259 0.888231
lowerneck -21.6614 3.35709 -7.41016
upperneck 27.1409 8.63509 -3.60006
head 12.5483 2.51051 1.30464
rclavicle 1.08835e-014 1.51076e-014
rhumerus 31.5627 -41.7959 -40.8063
rradius 95.9882
rwrist 2.57371
rhand -45.1126 0.666783
rfingers 7.12502
rthumb -17.892 -28.5302
lclavicle 1.08835e-014 1.51076e-014
lhumerus 9.05942 47.7398 31.1597
lradius 85.7837
lwrist 29.3107
lhand -22.7927 20.6626
lfingers 7.12502
lthumb 3.64328 50.6112
rfemur -6.53754 0.33788 19.587
rtibia 32.141
rfoot -22.4995 -4.53965
rtoes 3.99153
lfemur -21.2176 0.921103 -18.4581
ltibia 31.1664
lfoot -9.5447 2.87376
ltoes -19.6922
944
root -2.74115 17.7146 0.727357 -0.667173 -17.0158 1.91211
lowerback 6.77316 0.949745 0.216544
upperback 0.698335 1.30823 0.95103
thorax -3.09357 0.651668 0.736985
lowerneck -21.3513 3.37959 -7.26383
upperneck 27.1576 8.66516 -3.86818
head 12.5168 2.50711 1.17764
rclavicle -2.02263e-014 9.54166e-015
rhumerus 30.8246 -41.3456 -40.8838
rradius 95.4496
rwrist 2.71811
rhand -45.0542 0.728139
rfingers 7.12502
rthumb -17.8358 -28.474
lclavicle -2.02263e-014 9.54166e-015
lhumerus 9.69204 47.4756 32.0872
lradius 85.6465
lwrist 29.0056
lhand -22.9591 20.666
lfingers 7.12502
lthumb 3.48262 50.6173
rfemur -6.72492 0.268687 19.4161
rtibia 31.9562
rfoot -22.1728 -4.7774
rtoes 3.96638
lfemur -21.0552 0.912286 -17.9877
ltibia 32.2089
lfoot -9.21782 3.11659
ltoes -18.92
945
root -2.68463 17.7345 0.665601 -0.659331 -16.8717 1.92096
lowerback 6.89924 0.914003 0.155183
upperback 0.747602 1.25604 0.944271
thorax -3.11372 0.626262 0.767773
lowerneck -21.2929 3.45403 -7.3158
upperneck 27.5515 8.82235 -3.86407
head 12.6601 2.54769 1.21708
rclavicle 2.98177e-016 -9.54166e-015
rhumerus 30.002 -40.7114 -40.7501
rradius 94.9916
rwrist 2.75172
rhand -44.8383 0.915189
rfingers 7.12502
rthumb -17.6281 -28.3057
lclavicle 2.98177e-016 -9.54166e-015
lhumerus 9.89982 47.0863 32.8135
lradius 85.5356
lwrist 28.7423
lhand -23.1453 20.5062
lfingers 7.12502
lthumb 3.30275 50.4604
rfemur -6.88307 0.300608 19.2885
rtibia 31.7351
rfoot -21.8793 -5.0236
rtoes 4.03158
lfemur -20.9327 0.864515 -17.4465
ltibia 33.1908
lfoot -9.02448 3.26524
ltoes -17.7652
946
root -2.63034 17.7506 0.605232 -0.679941 -16.7394 1.91483
lowerback 6.99147 0.908899 0.0823975
upperback 0.856519 1.24248 0.931395
thorax -3.05386 0.619973 0.796154
lowerneck -21.325 3.58385 -7.335
upperneck 28.1327 9.0121 -3.65456
head 12.8846 2.62113 1.34007
rclavicle 1.93318e-014 -6.36111e-015
rhumerus 29.1628 -40.1834 -40.6871
rradius 94.5577
rwrist 2.84909
rhand -44.3824 0.964666
rfingers 7.12502
rthumb -17.1893 -28.295
lclavicle 1.93318e-014 -6.36111e-015
lhumerus 10.1328 46.6766 33.591
lradius 85.4701
lwrist 28.7525
lhand -23.1637 20.4988
lfingers 7.12502
lthumb 3.28504 50.4532
rfemur -7.0174 0.452576 19.1974
rtibia 31.5305
rfoot -21.6552 -5.30101
rtoes 4.01707
lfemur -20.7505 0.878297 -16.8963
ltibia 34.1025
lfoot -9.14077 3.52692
ltoes -16.9081
947
root -2.57578 17.7662 0.547283 -0.691887 -16.5848 1.92045
lowerback 6.99314 0.936229 0.0843001
upperback 1.01431 1.2746 0.851351
thorax -2.89042 0.635056 0.710924
lowerneck -21.2014 3.68563 -7.2336
upperneck 28.4185 9.13743 -3.65277
head 12.9784 2.67239 1.34626
rclavicle 1.21259e-014 3.18055e-015
rhumerus 28.2014 -39.7472 -40.6569
rradius 94.0785
rwrist 3.07894
rhand -44.1353 1.06228
rfingers 7.12502
rthumb -16.9515 -28.218
lclavicle 1.21259e-014 3.18055e-015
lhumerus 10.6055 46.2312 34.6373
lradius 85.4743
lwrist 28.756
lhand -22.9806 20.6285
lfingers 7.12502
lthumb 3.46181 50.5801
rfemur -7.18729 0.391649 19.0649
rtibia 31.3635
rfoot -21.3685 -5.52261
rtoes 3.63198
lfemur -20.4967 0.894747 -16.3851
ltibia 34.9585
lfoot -9.28781 3.94022
ltoes -15.5356
948
root -2.51981 17.7786 0.490116 -0.763955 -16.4038 1.98217
lowerback 7.12153 0.962109 -0.041462
upperback 1.15258 1.29711 0.805827
thorax -2.82135 0.646827 0.731662
lowerneck -21.0756 3.76466 -7.16961
upperneck 28.5458 9.27359 -3.79159
head 13.0163 2.71423 1.30413
rclavicle -5.90887e-014 1.59028e-015
rhumerus 27.0548 -39.1639 -40.4775
rradius 93.6914
rwrist 3.26138
rhand -43.9371 1.15075
rfingers 7.12502
rthumb -16.7607 -28.1458
lclavicle -5.90887e-014 1.59028e-015
lhumerus 10.9585 45.696 35.7694
lradius 85.4819
lwrist 28.4836
lhand -22.5932 20.6791
lfingers 7.12502
lthumb 3.83596 50.6243
rfemur -7.29824 0.387753 18.8682
rtibia 31.2155
rfoot -21.1044 -5.74087
rtoes 3.61676
lfemur -20.0815 1.01812 -15.9637
ltibia 35.7637
lfoot -9.09882 4.30554
ltoes -15.2416
949
root -2.46502 17.7892 0.43183 -0.848955 -16.2138 2.09376
lowerback 7.36287 0.938633 -0.288784
upperback 1.21508 1.24635 0.798789
thorax -2.89584 0.623698 0.864798
lowerneck -20.9323 3.88126 -7.32312
upperneck 28.6972 9.47043 -3.71353
head 13.0334 2.78917 1.38904
rclavicle 1.2424e-014 3.18055e-015
rhumerus 25.9979 -38.3449 -40.3968
rradius 93.273
rwrist 3.41248
rhand -43.733 1.41313
rfingers 7.12502
rthumb -16.5641 -27.8999
lclavicle 1.2424e-014 3.18055e-015
lhumerus 10.7656 45.075 36.5078
lradius 85.5218
lwrist 28.1954
lhand -22.3355 20.9837
lfingers 7.12502
lthumb 4.08482 50.9243
rfemur -7.40864 0.467777 18.6358
rtibia 31.0691
rfoot -20.8597 -6.03644
rtoes 3.75475
lfemur -19.6585 1.25544 -15.6116
ltibia 36.5318
lfoot -8.71127 4.71219
ltoes -16.1842
950
root -2.41074 17.8048 0.376253 -0.890787 -16.0491 2.14769
lowerback 7.52607 0.893157 -0.467803
upperback 1.26228 1.17106 0.796728
thorax -2.94025 0.587815 0.968594
lowerneck -20.6804 3.97001 -7.58047
upperneck 28.8483 9.61494 -3.53145
head 13.0156 2.84744 1.51778
rclavicle -3.52843e-015 3.18055e-015
rhumerus 25.0266 -37.3758 -40.5064
rradius 92.7908
rwrist 3.84552
rhand -43.4049 1.60596
rfingers 7.12502
rthumb -16.2483 -27.7332
lclavicle -3.52843e-015 3.18055e-015
lhumerus 10.3369 44.3819 37.0863
lradius 85.5916
lwrist 27.8786
lhand -22.1505 21.0073
lfingers 7.12502
lthumb 4.26347 50.9444
rfemur -7.53634 0.472186 18.4517
rtibia 30.9114
rfoot -20.6214 -6.20589
rtoes 3.9947
lfemur -19.2871 1.41229 -15.1838
ltibia 37.2794
lfoot -8.51326 5.24559
ltoes -16.6253
